<mxfile host="Electron" agent="Mozilla/5.0 (Macintosh; Intel Mac OS X 10_15_7) AppleWebKit/537.36 (KHTML, like Gecko) draw.io/26.0.16 Chrome/132.0.6834.196 Electron/34.2.0 Safari/537.36" version="26.0.16">
  <diagram name="Page-1" id="r6XsAYx-GSBy2eDJs_r9">
    <mxGraphModel dx="954" dy="611" grid="1" gridSize="10" guides="1" tooltips="1" connect="1" arrows="1" fold="1" page="1" pageScale="1" pageWidth="2336" pageHeight="1654" math="0" shadow="0">
      <root>
        <mxCell id="0" />
        <mxCell id="1" parent="0" />
        <mxCell id="TD5X2QhBkx7ZEBHWXs4M-23" value="" style="rounded=0;whiteSpace=wrap;html=1;fillColor=#ffe6cc;strokeColor=#d79b00;opacity=70;" vertex="1" parent="1">
          <mxGeometry x="160" y="200" width="510" height="280" as="geometry" />
        </mxCell>
        <mxCell id="TD5X2QhBkx7ZEBHWXs4M-1" value="Chatbot" style="rounded=0;whiteSpace=wrap;html=1;" vertex="1" parent="1">
          <mxGeometry x="360" y="270" width="120" height="60" as="geometry" />
        </mxCell>
        <mxCell id="TD5X2QhBkx7ZEBHWXs4M-3" value="SQLite" style="shape=datastore;whiteSpace=wrap;html=1;" vertex="1" parent="1">
          <mxGeometry x="590" y="270" width="60" height="60" as="geometry" />
        </mxCell>
        <mxCell id="TD5X2QhBkx7ZEBHWXs4M-4" value="" style="shape=image;imageAspect=0;aspect=fixed;verticalLabelPosition=bottom;verticalAlign=top;image=https://upload.wikimedia.org/wikipedia/commons/thumb/9/97/OpenAI_logo_2025.svg/2560px-OpenAI_logo_2025.svg.png;" vertex="1" parent="1">
          <mxGeometry x="327.8" y="100" width="184.4" height="50" as="geometry" />
        </mxCell>
        <mxCell id="TD5X2QhBkx7ZEBHWXs4M-7" value="" style="endArrow=classic;html=1;rounded=0;entryX=0.554;entryY=1.04;entryDx=0;entryDy=0;entryPerimeter=0;" edge="1" parent="1" target="TD5X2QhBkx7ZEBHWXs4M-4">
          <mxGeometry width="50" height="50" relative="1" as="geometry">
            <mxPoint x="430" y="270" as="sourcePoint" />
            <mxPoint x="430" y="180" as="targetPoint" />
          </mxGeometry>
        </mxCell>
        <mxCell id="TD5X2QhBkx7ZEBHWXs4M-8" value="" style="endArrow=classic;html=1;rounded=0;exitX=0.386;exitY=1.04;exitDx=0;exitDy=0;exitPerimeter=0;" edge="1" parent="1" source="TD5X2QhBkx7ZEBHWXs4M-4">
          <mxGeometry width="50" height="50" relative="1" as="geometry">
            <mxPoint x="400" y="180" as="sourcePoint" />
            <mxPoint x="400" y="270" as="targetPoint" />
          </mxGeometry>
        </mxCell>
        <mxCell id="TD5X2QhBkx7ZEBHWXs4M-9" value="" style="endArrow=classic;html=1;rounded=0;" edge="1" parent="1">
          <mxGeometry width="50" height="50" relative="1" as="geometry">
            <mxPoint x="480" y="290" as="sourcePoint" />
            <mxPoint x="590" y="290" as="targetPoint" />
          </mxGeometry>
        </mxCell>
        <mxCell id="TD5X2QhBkx7ZEBHWXs4M-10" value="" style="endArrow=classic;html=1;rounded=0;" edge="1" parent="1">
          <mxGeometry width="50" height="50" relative="1" as="geometry">
            <mxPoint x="590" y="320" as="sourcePoint" />
            <mxPoint x="480" y="320" as="targetPoint" />
          </mxGeometry>
        </mxCell>
        <mxCell id="TD5X2QhBkx7ZEBHWXs4M-11" value="LLM service" style="text;html=1;align=center;verticalAlign=middle;whiteSpace=wrap;rounded=0;" vertex="1" parent="1">
          <mxGeometry x="452.2" y="150" width="60" height="30" as="geometry" />
        </mxCell>
        <mxCell id="TD5X2QhBkx7ZEBHWXs4M-12" value="Data source" style="text;html=1;align=center;verticalAlign=middle;whiteSpace=wrap;rounded=0;" vertex="1" parent="1">
          <mxGeometry x="590" y="230" width="60" height="30" as="geometry" />
        </mxCell>
        <mxCell id="TD5X2QhBkx7ZEBHWXs4M-15" value="Creates school&lt;div&gt;database&lt;/div&gt;" style="edgeStyle=orthogonalEdgeStyle;rounded=0;orthogonalLoop=1;jettySize=auto;html=1;entryX=0.5;entryY=1;entryDx=0;entryDy=0;" edge="1" parent="1" source="TD5X2QhBkx7ZEBHWXs4M-13" target="TD5X2QhBkx7ZEBHWXs4M-3">
          <mxGeometry x="-0.2249" relative="1" as="geometry">
            <mxPoint as="offset" />
          </mxGeometry>
        </mxCell>
        <mxCell id="TD5X2QhBkx7ZEBHWXs4M-13" value="" style="shape=image;imageAspect=0;aspect=fixed;verticalLabelPosition=bottom;verticalAlign=top;image=https://upload.wikimedia.org/wikipedia/commons/thumb/c/c3/Python-logo-notext.svg/701px-Python-logo-notext.svg.png;" vertex="1" parent="1">
          <mxGeometry x="388.1" y="380" width="63.81" height="70" as="geometry" />
        </mxCell>
        <mxCell id="TD5X2QhBkx7ZEBHWXs4M-14" value="initialise_db.py" style="text;html=1;align=center;verticalAlign=middle;whiteSpace=wrap;rounded=0;" vertex="1" parent="1">
          <mxGeometry x="375.95" y="440" width="88.1" height="30" as="geometry" />
        </mxCell>
        <mxCell id="TD5X2QhBkx7ZEBHWXs4M-16" value="User" style="shape=umlActor;verticalLabelPosition=bottom;verticalAlign=top;html=1;outlineConnect=0;" vertex="1" parent="1">
          <mxGeometry x="50" y="270" width="30" height="60" as="geometry" />
        </mxCell>
        <mxCell id="TD5X2QhBkx7ZEBHWXs4M-19" value="" style="shape=image;verticalLabelPosition=bottom;labelBackgroundColor=default;verticalAlign=top;aspect=fixed;imageAspect=0;image=https://images.seeklogo.com/logo-png/45/2/streamlit-logo-png_seeklogo-458260.png;" vertex="1" parent="1">
          <mxGeometry x="200" y="250" width="100" height="100" as="geometry" />
        </mxCell>
        <mxCell id="TD5X2QhBkx7ZEBHWXs4M-20" value="" style="endArrow=classic;html=1;rounded=0;" edge="1" parent="1">
          <mxGeometry width="50" height="50" relative="1" as="geometry">
            <mxPoint x="300" y="290" as="sourcePoint" />
            <mxPoint x="360" y="290" as="targetPoint" />
          </mxGeometry>
        </mxCell>
        <mxCell id="TD5X2QhBkx7ZEBHWXs4M-21" value="" style="endArrow=classic;html=1;rounded=0;" edge="1" parent="1">
          <mxGeometry width="50" height="50" relative="1" as="geometry">
            <mxPoint x="360" y="310" as="sourcePoint" />
            <mxPoint x="300" y="310" as="targetPoint" />
          </mxGeometry>
        </mxCell>
        <mxCell id="TD5X2QhBkx7ZEBHWXs4M-22" value="" style="shape=image;verticalLabelPosition=bottom;labelBackgroundColor=default;verticalAlign=top;aspect=fixed;imageAspect=0;image=https://cdn4.iconfinder.com/data/icons/logos-and-brands/512/97_Docker_logo_logos-512.png;" vertex="1" parent="1">
          <mxGeometry x="190" y="410" width="50" height="50" as="geometry" />
        </mxCell>
        <mxCell id="TD5X2QhBkx7ZEBHWXs4M-24" value="" style="rounded=0;whiteSpace=wrap;html=1;dashed=1;dashPattern=8 8;fillColor=none;" vertex="1" parent="1">
          <mxGeometry x="190" y="250" width="310" height="110" as="geometry" />
        </mxCell>
        <mxCell id="TD5X2QhBkx7ZEBHWXs4M-25" value="" style="endArrow=classic;html=1;rounded=0;" edge="1" parent="1">
          <mxGeometry width="50" height="50" relative="1" as="geometry">
            <mxPoint x="190" y="320.04" as="sourcePoint" />
            <mxPoint x="100.93" y="320" as="targetPoint" />
          </mxGeometry>
        </mxCell>
        <mxCell id="TD5X2QhBkx7ZEBHWXs4M-26" value="" style="endArrow=classic;html=1;rounded=0;" edge="1" parent="1">
          <mxGeometry width="50" height="50" relative="1" as="geometry">
            <mxPoint x="100.93" y="290" as="sourcePoint" />
            <mxPoint x="190" y="290.03999999999996" as="targetPoint" />
          </mxGeometry>
        </mxCell>
      </root>
    </mxGraphModel>
  </diagram>
</mxfile>
